<svg width="81.381165" height="63.000000" viewBox="0 0 81.3812 63" fill="none" xmlns="http://www.w3.org/2000/svg" xmlns:xlink="http://www.w3.org/1999/xlink">
	<desc>
			Created with Pixso.
	</desc>
	<path id="合并" d="M41.2898 18.602C40.8902 18.4669 40.4907 18.4669 40.0911 18.602L29.0178 22.3468C28.6308 22.4777 28.3696 22.8451 28.3696 23.2591L28.3696 32.4682C28.3696 36.6478 30.4285 40.5506 33.8561 42.869L39.639 46.7804C40.2758 47.211 41.1051 47.211 41.7419 46.7804L47.5251 42.8693C50.9526 40.5509 53.0115 36.6481 53.0115 32.4685L53.0115 23.2591C53.0115 22.8451 52.7504 22.4777 52.3634 22.3468L41.2898 18.602ZM30.265 23.9514L40.6904 20.4262L51.1159 23.9514L51.1159 32.4685L51.1052 32.9492C50.9554 36.3024 49.242 39.3967 46.4736 41.2691L40.6904 45.1783L34.9073 41.2691L34.519 40.9933C31.8522 39.0067 30.265 35.8444 30.265 32.4685L30.265 23.9514Z" clip-rule="evenodd" fill-rule="evenodd" fill="#BEF0F4" fill-opacity="1.000000"/>
	<g filter="url(#filter_6_177_dd)"/>
	<path id="矢量 20" d="M55.2642 5.5L69.8377 31.9906L55.2642 57.5L26.1171 57.5L11.5435 31.9906L26.1171 5.5L55.2642 5.5Z" stroke="#8AF7FF" stroke-width="3.000000"/>
	<path id="矢量 20" d="M55.2642 5.5L69.8377 31.9906L55.2642 57.5L26.1171 57.5L11.5435 31.9906L26.1171 5.5L55.2642 5.5Z" stroke="#8AF7FF" stroke-width="3.000000"/>
	<path id="矢量 21" d="M55.2642 5.5L69.8377 31.9906L55.2642 57.5L26.1171 57.5L11.5435 31.9906L26.1171 5.5L55.2642 5.5Z" stroke="#8AF7FF" stroke-width="2.000000"/>
	<path id="矢量 21" d="M55.2642 5.5L69.8377 31.9906L55.2642 57.5L26.1171 57.5L11.5435 31.9906L26.1171 5.5L55.2642 5.5Z" stroke="#8AF7FF" stroke-width="2.000000"/>
	<path id="矢量 24" d="M57.3461 9.66037L68.0244 9.66037L80.2474 32.972L68.0244 55.4204L57.3461 55.4204" stroke="#8AF7FF" stroke-opacity="0.500000" stroke-width="2.000000"/>
	<path id="矢量 24" d="M57.3461 9.66037L68.0244 9.66037L80.2474 32.972L68.0244 55.4204L57.3461 55.4204" stroke="#8AF7FF" stroke-opacity="0.100000" stroke-width="2.000000"/>
	<path id="矢量 25" d="M24.0351 9.66037L13.3568 9.66037L1.13379 32.972L13.3568 55.4204L24.0351 55.4204" stroke="#8AF7FF" stroke-opacity="0.500000" stroke-width="2.000000"/>
	<path id="矢量 25" d="M24.0351 9.66037L13.3568 9.66037L1.13379 32.972L13.3568 55.4204L24.0351 55.4204" stroke="#8AF7FF" stroke-opacity="0.100000" stroke-width="2.000000"/>
	<path id="path" d="M38.6107 28.8198L43.7971 34.2216C44.6547 32.709 44.4597 30.7287 43.212 29.4291C41.9644 28.1292 40.0629 27.9265 38.6107 28.8198ZM37.271 30.2155C36.4146 31.7279 36.6097 33.7075 37.8571 35.0067C39.1043 36.306 41.0052 36.5094 42.4571 35.6174L37.271 30.2155ZM44.5508 28.0334C46.7689 30.3439 46.7689 34.0904 44.5508 36.4012C42.3328 38.7116 38.7363 38.7116 36.5179 36.4012C34.2996 34.0907 34.2999 30.3442 36.5179 28.0334C38.7363 25.723 42.3328 25.723 44.5508 28.0334Z" fill-rule="nonzero" fill="#BEF0F4"/>
	<defs>
		<filter id="filter_6_177_dd" x="5.823914" y="0.000000" width="69.733398" height="63.000000" filterUnits="userSpaceOnUse" color-interpolation-filters="sRGB">
			<feFlood flood-opacity="0" result="BackgroundImageFix"/>
			<feBlend mode="normal" in="SourceGraphic" in2="BackgroundImageFix" result="shape"/>
			<feGaussianBlur stdDeviation="1.33333" result="effect_layerBlur_1"/>
		</filter>
	</defs>
</svg>
