<svg width="81.381104" height="63.000000" viewBox="0 0 81.3811 63" fill="none" xmlns="http://www.w3.org/2000/svg" xmlns:xlink="http://www.w3.org/1999/xlink">
	<desc>
			Created with Pixso.
	</desc>
	<g filter="url(#filter_6_162_dd)"/>
	<path id="矢量 20" d="M55.2642 5.5L69.8377 31.9906L55.2642 57.5L26.1171 57.5L11.5435 31.9906L26.1171 5.5L55.2642 5.5Z" stroke="#8AF7FF" stroke-width="3.000000"/>
	<path id="矢量 20" d="M55.2642 5.5L69.8377 31.9906L55.2642 57.5L26.1171 57.5L11.5435 31.9906L26.1171 5.5L55.2642 5.5Z" stroke="#8AF7FF" stroke-width="3.000000"/>
	<path id="矢量 21" d="M55.2642 5.5L69.8377 31.9906L55.2642 57.5L26.1171 57.5L11.5435 31.9906L26.1171 5.5L55.2642 5.5Z" stroke="#8AF7FF" stroke-width="2.000000"/>
	<path id="矢量 21" d="M55.2642 5.5L69.8377 31.9906L55.2642 57.5L26.1171 57.5L11.5435 31.9906L26.1171 5.5L55.2642 5.5Z" stroke="#8AF7FF" stroke-width="2.000000"/>
	<path id="矢量 21" d="M57.346 9.66L68.0243 9.66L80.2473 32.9716L68.0243 55.42L57.346 55.42" stroke="#8AF7FF" stroke-opacity="0.500000" stroke-width="2.000000"/>
	<path id="矢量 21" d="M57.346 9.66L68.0243 9.66L80.2473 32.9716L68.0243 55.42L57.346 55.42" stroke="#8AF7FF" stroke-opacity="0.100000" stroke-width="2.000000"/>
	<path id="矢量 23" d="M24.0351 9.66L13.3568 9.66L1.13379 32.9716L13.3568 55.42L24.0351 55.42" stroke="#8AF7FF" stroke-opacity="0.500000" stroke-width="2.000000"/>
	<path id="矢量 23" d="M24.0351 9.66L13.3568 9.66L1.13379 32.9716L13.3568 55.42L24.0351 55.42" stroke="#8AF7FF" stroke-opacity="0.100000" stroke-width="2.000000"/>
	<path id="合并" d="M40.6759 18.501C40.4764 18.501 40.2768 18.5357 40.0772 18.6049L29.0169 22.4454C28.6304 22.5796 28.3695 22.9564 28.3695 23.381L28.3695 32.8254C28.3695 37.1117 30.426 41.1143 33.8495 43.4918L39.6257 47.5032C40.2617 47.9448 41.0901 47.9448 41.7261 47.5032L47.5026 43.4921C50.9261 41.1146 52.9826 37.1121 52.9826 32.8257L52.9826 23.381C52.9826 22.9564 52.7217 22.5796 52.3352 22.4454L41.2745 18.6049C41.075 18.5357 40.8754 18.501 40.6759 18.501ZM45.1912 28.2321C47.4092 30.5426 47.4092 34.2891 45.1912 36.5999C42.9731 38.9103 39.3767 38.9103 37.1583 36.5999C34.94 34.2894 34.9403 30.5429 37.1583 28.2321C39.3767 25.9217 42.9731 25.9217 45.1912 28.2321ZM39.2511 29.0185L44.4376 34.4204C45.2952 32.9077 45.1 30.9274 43.8524 29.6278C42.6049 28.3279 40.7032 28.1252 39.2511 29.0185ZM37.9114 30.4142C37.055 31.9266 37.2501 33.9062 38.4974 35.2054C39.7447 36.5047 41.6456 36.7081 43.0975 35.8161L37.9114 30.4142Z" clip-rule="evenodd" fill-rule="evenodd" fill="#BEF0F4" fill-opacity="1.000000"/>
	<defs>
		<filter id="filter_6_162_dd" x="5.823914" y="0.000000" width="69.733398" height="63.000000" filterUnits="userSpaceOnUse" color-interpolation-filters="sRGB">
			<feFlood flood-opacity="0" result="BackgroundImageFix"/>
			<feBlend mode="normal" in="SourceGraphic" in2="BackgroundImageFix" result="shape"/>
			<feGaussianBlur stdDeviation="1.33333" result="effect_layerBlur_1"/>
		</filter>
	</defs>
</svg>
